<?xml version="1.0" encoding="UTF-8"?>
<svg id="Layer_2" data-name="Layer 2" xmlns="http://www.w3.org/2000/svg" xmlns:xlink="http://www.w3.org/1999/xlink" viewBox="0 0 976.92 791.5">
  <defs>
    <style>
      .cls-1 {
        filter: url(#drop-shadow-6);
      }

      .cls-1, .cls-2, .cls-3, .cls-4, .cls-5, .cls-6, .cls-7, .cls-8, .cls-9, .cls-10 {
        fill: #75a9cc;
      }

      .cls-1, .cls-2, .cls-3, .cls-5, .cls-6, .cls-7, .cls-8, .cls-9, .cls-10 {
        stroke-width: 0px;
      }

      .cls-2 {
        filter: url(#drop-shadow-1);
      }

      .cls-3 {
        filter: url(#drop-shadow-3);
      }

      .cls-11 {
        letter-spacing: .03em;
      }

      .cls-4 {
        font-family: AcuminVariableConcept, 'Acumin Variable Concept';
        font-size: 31.1px;
        font-variation-settings: 'wght' 194, 'wdth' 100, 'slnt' 0;
      }

      .cls-12 {
        letter-spacing: 0em;
      }

      .cls-13 {
        letter-spacing: 0em;
      }

      .cls-6 {
        filter: url(#drop-shadow-7);
      }

      .cls-7 {
        filter: url(#drop-shadow-2);
      }

      .cls-8 {
        filter: url(#drop-shadow-4);
      }

      .cls-14 {
        letter-spacing: 0em;
      }

      .cls-15 {
        letter-spacing: -.03em;
      }

      .cls-9 {
        filter: url(#drop-shadow-5);
      }

      .cls-16 {
        letter-spacing: 0em;
      }

      .cls-10 {
        filter: url(#drop-shadow-8);
      }
    </style>
    <filter id="drop-shadow-1" filterUnits="userSpaceOnUse">
      <feOffset dx="7" dy="7"/>
      <feGaussianBlur result="blur" stdDeviation="0"/>
      <feFlood flood-color="#000" flood-opacity=".75"/>
      <feComposite in2="blur" operator="in"/>
      <feComposite in="SourceGraphic"/>
    </filter>
    <filter id="drop-shadow-2" filterUnits="userSpaceOnUse">
      <feOffset dx="7" dy="7"/>
      <feGaussianBlur result="blur-2" stdDeviation="0"/>
      <feFlood flood-color="#000" flood-opacity=".75"/>
      <feComposite in2="blur-2" operator="in"/>
      <feComposite in="SourceGraphic"/>
    </filter>
    <filter id="drop-shadow-3" filterUnits="userSpaceOnUse">
      <feOffset dx="7" dy="7"/>
      <feGaussianBlur result="blur-3" stdDeviation="0"/>
      <feFlood flood-color="#000" flood-opacity=".75"/>
      <feComposite in2="blur-3" operator="in"/>
      <feComposite in="SourceGraphic"/>
    </filter>
    <filter id="drop-shadow-4" filterUnits="userSpaceOnUse">
      <feOffset dx="7" dy="7"/>
      <feGaussianBlur result="blur-4" stdDeviation="0"/>
      <feFlood flood-color="#000" flood-opacity=".75"/>
      <feComposite in2="blur-4" operator="in"/>
      <feComposite in="SourceGraphic"/>
    </filter>
    <filter id="drop-shadow-5" filterUnits="userSpaceOnUse">
      <feOffset dx="7" dy="7"/>
      <feGaussianBlur result="blur-5" stdDeviation="0"/>
      <feFlood flood-color="#000" flood-opacity=".75"/>
      <feComposite in2="blur-5" operator="in"/>
      <feComposite in="SourceGraphic"/>
    </filter>
    <filter id="drop-shadow-6" filterUnits="userSpaceOnUse">
      <feOffset dx="7" dy="7"/>
      <feGaussianBlur result="blur-6" stdDeviation="0"/>
      <feFlood flood-color="#000" flood-opacity=".75"/>
      <feComposite in2="blur-6" operator="in"/>
      <feComposite in="SourceGraphic"/>
    </filter>
    <filter id="drop-shadow-7" filterUnits="userSpaceOnUse">
      <feOffset dx="7" dy="7"/>
      <feGaussianBlur result="blur-7" stdDeviation="0"/>
      <feFlood flood-color="#000" flood-opacity=".75"/>
      <feComposite in2="blur-7" operator="in"/>
      <feComposite in="SourceGraphic"/>
    </filter>
    <filter id="drop-shadow-8" filterUnits="userSpaceOnUse">
      <feOffset dx="7" dy="7"/>
      <feGaussianBlur result="blur-8" stdDeviation="0"/>
      <feFlood flood-color="#000" flood-opacity=".75"/>
      <feComposite in2="blur-8" operator="in"/>
      <feComposite in="SourceGraphic"/>
    </filter>
  </defs>
  <g id="background">
    <g>
      <path class="cls-2" d="m239.99,303.76c-4.69-1.29-7.65-1.86-10.41-2.9-59.96-22.56-117.27-16.85-171.17,16.05-18.96,11.57-34.09,27.6-44.02,47.29-7.07,14.01-11.41,28.15-13.21,42.39-1.12,8.88-4.23,35.42,8.4,64.72,20.74,48.11,72.36,76.96,116.15,79.39.72.04,1.31.07,1.68.08.34-.05.7-.07,1.07-.05.03,0,.05,0,.08,0,.37-.04.76-.06,1.16-.06.1,0,.2,0,.3.01.17-.02.34-.04.52-.06.08-.02.16-.04.24-.07,1.41-.38,2.79-.54,4.12-.54-.85-.88-2.79-3.15-3.45-6.65-.62-3.34.27-6,.72-7.12-.92-.01-1.77-.13-2.55-.34,0,.02,0,.03,0,.05-25.55-2.21-50.66-15.85-67.89-37.52-29.01-36.47-28.34-94.97,26.74-120.27,24.62-11.31,50.37-18.08,77.91-18.42,10.7-.13,21.53-.62,32.05-2.32,20.03-3.25,36.94-12.09,45.45-30.5,12.68-27.44,23.85-55.52,36.47-82.99,6.21-13.51,14.25-26.25,21.41-39.37,1.11-2.02,1.94-4.18,2.9-6.28-44.73,22.23-65.66,57.57-64.64,105.47Z"/>
      <path class="cls-7" d="m651.85,509.18c12.77-1.58,29.95-4.35,43.45-11.53,7.2-3.83,14.72-9.01,14.72-9.01,1.71-1.18,6.01-4.21,11.41-8.65,3.51-2.89,12.21-10.09,20.17-19.42,0,0,10.22-11.96,18.43-29.28,28.22-59.48,20.46-112.91,20.46-112.91-5.32-46.13-29.44-83.98-64.93-114.64-32.44-28.02-66.53-54.34-100.49-80.72-51.53-40.05-103.68-79.37-155.25-119.39-6.03-4.68-9.69-4.88-15.53-.33-23.24,18.11-46.87,35.77-70.27,53.69-61.37,46.98-122.55,94.19-184.12,140.93-29.17,22.14-56.79,46.38-90.29,62.93-.54.27-.62,1.39-1.57,3.74,8.52-1.12,15.89-2.48,23.31-3.01,42.29-3.03,79.41-17.45,112.39-43.06,51.78-40.21,104.37-79.48,156.59-119.19,20.54-15.62,41-31.34,61.47-47,6.7,5.17,13.05,10.18,19.51,15.05,49.02,36.95,97.98,73.98,147.14,110.76,26.7,19.97,52.04,41.5,82.09,57.44,22.7,12.05,39.09,30.79,48.67,54.21,15.94,38.95,11.33,77.15-4.66,115.02-12.54,29.7-34.77,49.13-67.24,57.13-13.28,3.27-27.16,5.92-40.79,6.04-40.79.38-81.59-.47-122.38-1.27-6.24-.12-9.79.9-13.07,6.49-5.97,10.15-13.37,19.54-20.14,29.28-1.08,1.56-1.96,3.25-3.09,5.13,16.73.87,73.27,3.73,127.56,4.6,0,0,19.31.31,46.42-3.05Z"/>
      <path class="cls-3" d="m563.64,249.9c-8.53-.92-11.26,2.83-14.72,9.29-17.37,32.45-35.06,64.76-53.51,96.67-8.03,13.9-20.59,23.86-37.04,28.46-8.68,2.42-14.1-2.26-12.17-10.66.92-4,2.16-8.02,3.93-11.74,14-29.49,28.26-58.87,42.23-88.37,5.99-12.64.2-22.68-14.36-24.01-6.51-.6-13.49.33-19.85,1.99-18.21,4.76-36.21,10.25-54.89,15.62-1.23-3.2-2.34-6.15-3.51-9.07-4.62-11.58-13.47-18.41-26.05-21.19-13.02-2.88-24.29,1.36-34.57,8.2-38.2,25.42-63.33,60.68-80.69,100.95-5.43,12.61-7.1,27.02-8.41,40.78-.79,8.26,2.46,16.87,4.02,26.11-.08,0-.16,0-.23.01,1.68,1.16,2.77,2.86,3.27,4.73.13-.12.26-.24.38-.36,9.12,3.43,16.64,7.59,24.69,9.03,22.58,4.05,40.93-5.57,56.66-19.46,31.02-27.38,52.56-60.62,63.85-99.5,2.48-8.55,4.7-17.92,3.48-26.45-.92-6.47,1.17-8.16,5.9-8.99,9.93-1.76,20.01-2.74,29.99-4.28,5.79-.89,11.51-2.24,18.78-3.69-1.58,3.31-2.2,4.92-3.07,6.39-14.77,24.89-29.94,49.57-44.22,74.71-7.58,13.34-13.9,27.34-12.3,43.29,1.54,15.38,14.26,26.86,30.58,27.13,17.45.29,31.23-7.26,43.2-18.51,3.89-3.66,7.54-7.54,11.29-11.32-11.79,23.92-25.19,46.49-38.55,69.08-2.2,3.72-4.54,4.86-9.62,3.78-24.52-5.23-49.15-10.02-73.85-14.41-35.46-6.3-69.53-2.5-101.9,13.46-17.45,8.6-30.29,21.67-42.51,35.77,32.04,0,63.36-1.78,94.35.5,30.68,2.25,61.03,8.52,91.52,13.06.44,1.29.51,1.51.95,2.8-25.17,23.34-53.6,41.76-87.89,51.35-33.59,9.4-67.7,13.94-102.97,9.72,1.48,2.01,3.01,3.29,4.73,4.27,25.33,14.44,53.12,17.94,81.71,14.73,65.48-7.34,116.87-38.03,156.24-87.7,37.6-47.44,63.77-100.78,88.68-154.84,14.26-30.94,29.84-61.33,44.78-91.99.8-1.65,1.09-3.52,1.56-5.09-10.5,0-20.33.8-29.94-.24Zm-196.37,87.31c-9.55,17.05-22.03,32.72-34.36,48.19-3.71,4.66-10.84,7.53-17,9.59-10.74,3.6-15.81-.03-16.14-10.8-.88-29.3,8.5-55.54,26.13-79.46,8.73-11.84,19.6-20.64,33.86-25.72,10.93-3.89,11.94-3.56,16.37,6.66.44,1.03,1.4,1.85,2.37,3.1,2.53-1.07,4.91-2.08,7.29-3.09,1,.91,1.07.97,2.07,1.88-6.67,16.65-11.86,34.05-20.6,49.65Z"/>
      <path class="cls-8" d="m683.11,301.09c-2.45-6.87-4.23-12.99-6.79-18.79-4.42-10.04-12.03-11.31-19.89-3.67-8.75,8.51-9.55,17.08-3.16,27.62,6.87,11.32,15.05,22.26,19.68,34.4,16.04,42.03-2.96,78.69-48.09,91.18-16.12,4.46-33.8,5.19-50.77,5.16-17.56-.03-26.45-10.48-26.44-27.31,0-14.93,5.64-28.18,16-39.07,7.08-7.45,15.79-13.51,24.91-21.14,1.84,10.12,4.47,20.48,5.35,30.97.52,6.16-3.02,11.3-11.06,11.23-2.13-.02-4.27.42-6.41.58-11.89.87-15.86,4.43-16.23,14.59-.33,9.24,5.58,16.8,15.3,17.7,39.07,3.64,58.78-15.26,51.65-52.03-2.75-14.19-9.22-27.73-13.91-41.59-9.05-26.74-8.65-51.98,14.48-72.75,14.37-12.91,31.87-18.48,51.54-15.77,4.32.6,9.39,3.6,11.98,6.97,9.41,12.24,5.07,40.09-8.13,51.73Z"/>
      <path class="cls-5" d="m131.05,536.17c3.39.09,7.1.05,11.07-.22,5.21-.35,9.93-1.03,14.08-1.83-1.23,2.82-3.95,7.77-9.49,11.42-3.92,2.58-7.87,3.59-9.28,3.94-3.75.93-7.94,1.18-8.98,1.24-.45.03-.82.04-1.07.05"/>
      <rect class="cls-9" x="418.35" y="97.8" width="34.04" height="34.27"/>
      <text class="cls-4" transform="translate(451.33 572.38) scale(1.02 1)"><tspan x="0" y="0">HO</tspan><tspan class="cls-12" x="45.59" y="0">M</tspan><tspan class="cls-16" x="72.53" y="0">E</tspan><tspan x="90.84" y="0">S &amp; D</tspan><tspan class="cls-11" x="169.75" y="0">E</tspan><tspan class="cls-14" x="188.72" y="0">V</tspan><tspan x="208.28" y="0">E</tspan><tspan class="cls-15" x="226.41" y="0">L</tspan><tspan x="242.49" y="0">O</tspan><tspan class="cls-13" x="265.57" y="0">P</tspan><tspan x="284.48" y="0">ERS</tspan></text>
      <rect class="cls-1" x="418.35" y="139.98" width="34.04" height="35.4"/>
      <rect class="cls-6" x="462.46" y="97.23" width="34.04" height="35.4"/>
      <rect class="cls-10" x="462.46" y="139.98" width="34.04" height="35.4"/>
    </g>
  </g>
</svg>